<svg width="476" height="72" viewBox="0 0 476 72" fill="none" xmlns="http://www.w3.org/2000/svg">
<rect width="476" height="72" fill="#18171F"/>
<path d="M37.2641 42.18C36.3641 42.18 35.5841 42.03 34.9241 41.73C34.2641 41.43 33.7541 41.004 33.3941 40.452C33.0461 39.888 32.8661 39.228 32.8541 38.472H35.1041C35.1041 39.012 35.2961 39.438 35.6801 39.75C36.0761 40.05 36.6101 40.2 37.2821 40.2C37.9301 40.2 38.4341 40.05 38.7941 39.75C39.1661 39.45 39.3521 39.036 39.3521 38.508C39.3521 38.064 39.2201 37.68 38.9561 37.356C38.7041 37.02 38.3381 36.792 37.8581 36.672L36.3461 36.258C35.3141 35.994 34.5161 35.52 33.9521 34.836C33.4001 34.152 33.1241 33.324 33.1241 32.352C33.1241 31.608 33.2921 30.96 33.6281 30.408C33.9641 29.856 34.4381 29.43 35.0501 29.13C35.6741 28.83 36.4061 28.68 37.2461 28.68C38.5181 28.68 39.5261 29.01 40.2701 29.67C41.0141 30.318 41.3921 31.194 41.4041 32.298H39.1541C39.1541 31.782 38.9861 31.38 38.6501 31.092C38.3141 30.792 37.8401 30.642 37.2281 30.642C36.6401 30.642 36.1841 30.78 35.8601 31.056C35.5361 31.332 35.3741 31.722 35.3741 32.226C35.3741 32.682 35.4941 33.072 35.7341 33.396C35.9861 33.708 36.3461 33.93 36.8141 34.062L38.3801 34.494C39.4241 34.758 40.2221 35.232 40.7741 35.916C41.3261 36.588 41.6021 37.422 41.6021 38.418C41.6021 39.162 41.4221 39.822 41.0621 40.398C40.7021 40.962 40.1981 41.4 39.5501 41.712C38.9021 42.024 38.1401 42.18 37.2641 42.18ZM46.8871 42V30.948H43.4491V28.86H52.5931V30.948H49.1551V42H46.8871ZM54.7821 42V28.86H58.9401C59.8161 28.86 60.5721 29.022 61.2081 29.346C61.8561 29.67 62.3601 30.126 62.7201 30.714C63.0801 31.29 63.2601 31.974 63.2601 32.766C63.2601 33.63 63.0381 34.392 62.5941 35.052C62.1621 35.712 61.5741 36.18 60.8301 36.456L63.4401 42H60.9201L58.6341 36.78H57.0321V42H54.7821ZM57.0321 34.8H58.9401C59.5761 34.8 60.0741 34.626 60.4341 34.278C60.7941 33.93 60.9741 33.45 60.9741 32.838C60.9741 32.214 60.7941 31.728 60.4341 31.38C60.0741 31.02 59.5761 30.84 58.9401 30.84H57.0321V34.8ZM65.791 42V28.86H73.675V30.822H68.005V34.242H73.045V36.186H68.005V40.038H73.675V42H65.791ZM76.296 42V28.86H79.05L82.704 39.48C82.668 39.096 82.626 38.646 82.578 38.13C82.542 37.602 82.512 37.068 82.488 36.528C82.464 35.976 82.452 35.496 82.452 35.088V28.86H84.504V42H81.75L78.132 31.38C78.156 31.728 78.186 32.148 78.222 32.64C78.258 33.132 78.288 33.636 78.312 34.152C78.336 34.668 78.348 35.142 78.348 35.574V42H76.296ZM91.265 42.18C90.425 42.18 89.687 42.024 89.051 41.712C88.427 41.388 87.941 40.938 87.593 40.362C87.257 39.774 87.089 39.084 87.089 38.292V32.568C87.089 31.764 87.257 31.074 87.593 30.498C87.941 29.922 88.427 29.478 89.051 29.166C89.687 28.842 90.425 28.68 91.265 28.68C92.117 28.68 92.849 28.842 93.461 29.166C94.085 29.478 94.571 29.922 94.919 30.498C95.267 31.074 95.441 31.764 95.441 32.568H93.173C93.173 31.944 93.005 31.47 92.669 31.146C92.345 30.822 91.877 30.66 91.265 30.66C90.653 30.66 90.179 30.822 89.843 31.146C89.507 31.47 89.339 31.938 89.339 32.55V38.292C89.339 38.904 89.507 39.378 89.843 39.714C90.179 40.05 90.653 40.218 91.265 40.218C91.877 40.218 92.345 40.05 92.669 39.714C93.005 39.378 93.173 38.904 93.173 38.292V36.96H90.941V35.016H95.441V38.292C95.441 39.084 95.267 39.774 94.919 40.362C94.571 40.938 94.085 41.388 93.461 41.712C92.849 42.024 92.117 42.18 91.265 42.18ZM100.852 42V30.948H97.4139V28.86H106.558V30.948H103.12V42H100.852ZM108.765 42V28.86H111.015V34.134H114.543V28.86H116.793V42H114.543V36.222H111.015V42H108.765Z" fill="#817D92"/>
<path d="M285.404 45.24C284.204 45.24 283.164 45.04 282.284 44.64C281.404 44.24 280.724 43.672 280.244 42.936C279.78 42.184 279.54 41.304 279.524 40.296H282.524C282.524 41.016 282.78 41.584 283.292 42C283.82 42.4 284.532 42.6 285.428 42.6C286.292 42.6 286.964 42.4 287.444 42C287.94 41.6 288.188 41.048 288.188 40.344C288.188 39.752 288.012 39.24 287.66 38.808C287.324 38.36 286.836 38.056 286.196 37.896L284.18 37.344C282.804 36.992 281.74 36.36 280.988 35.448C280.252 34.536 279.884 33.432 279.884 32.136C279.884 31.144 280.108 30.28 280.556 29.544C281.004 28.808 281.636 28.24 282.452 27.84C283.284 27.44 284.26 27.24 285.38 27.24C287.076 27.24 288.42 27.68 289.412 28.56C290.404 29.424 290.908 30.592 290.924 32.064H287.924C287.924 31.376 287.7 30.84 287.252 30.456C286.804 30.056 286.172 29.856 285.356 29.856C284.572 29.856 283.964 30.04 283.532 30.408C283.1 30.776 282.884 31.296 282.884 31.968C282.884 32.576 283.044 33.096 283.364 33.528C283.7 33.944 284.18 34.24 284.804 34.416L286.892 34.992C288.284 35.344 289.348 35.976 290.084 36.888C290.82 37.784 291.188 38.896 291.188 40.224C291.188 41.216 290.948 42.096 290.468 42.864C289.988 43.616 289.316 44.2 288.452 44.616C287.588 45.032 286.572 45.24 285.404 45.24ZM298.235 45V30.264H293.651V27.48H305.843V30.264H301.259V45H298.235ZM308.762 45V27.48H314.306C315.474 27.48 316.482 27.696 317.33 28.128C318.194 28.56 318.866 29.168 319.346 29.952C319.826 30.72 320.066 31.632 320.066 32.688C320.066 33.84 319.77 34.856 319.178 35.736C318.602 36.616 317.818 37.24 316.826 37.608L320.306 45H316.946L313.898 38.04H311.762V45H308.762ZM311.762 35.4H314.306C315.154 35.4 315.818 35.168 316.298 34.704C316.778 34.24 317.018 33.6 317.018 32.784C317.018 31.952 316.778 31.304 316.298 30.84C315.818 30.36 315.154 30.12 314.306 30.12H311.762V35.4ZM328.528 45.24C327.408 45.24 326.432 45.032 325.6 44.616C324.784 44.184 324.152 43.584 323.704 42.816C323.272 42.032 323.056 41.112 323.056 40.056V32.424C323.056 31.368 323.272 30.456 323.704 29.688C324.152 28.904 324.784 28.304 325.6 27.888C326.432 27.456 327.408 27.24 328.528 27.24C329.664 27.24 330.64 27.456 331.456 27.888C332.272 28.304 332.896 28.904 333.328 29.688C333.776 30.456 334 31.36 334 32.4V40.056C334 41.112 333.776 42.032 333.328 42.816C332.896 43.584 332.272 44.184 331.456 44.616C330.64 45.032 329.664 45.24 328.528 45.24ZM328.528 42.6C329.344 42.6 329.96 42.384 330.376 41.952C330.792 41.504 331 40.872 331 40.056V32.424C331 31.592 330.792 30.96 330.376 30.528C329.96 30.096 329.344 29.88 328.528 29.88C327.712 29.88 327.096 30.096 326.68 30.528C326.264 30.96 326.056 31.592 326.056 32.424V40.056C326.056 40.872 326.264 41.504 326.68 41.952C327.112 42.384 327.728 42.6 328.528 42.6ZM337.447 45V27.48H341.119L345.991 41.64C345.943 41.128 345.887 40.528 345.823 39.84C345.775 39.136 345.735 38.424 345.703 37.704C345.671 36.968 345.655 36.328 345.655 35.784V27.48H348.391V45H344.719L339.895 30.84C339.927 31.304 339.967 31.864 340.015 32.52C340.063 33.176 340.103 33.848 340.135 34.536C340.167 35.224 340.183 35.856 340.183 36.432V45H337.447ZM357.405 45.24C356.285 45.24 355.301 45.032 354.453 44.616C353.621 44.184 352.973 43.584 352.509 42.816C352.061 42.032 351.837 41.112 351.837 40.056V32.424C351.837 31.352 352.061 30.432 352.509 29.664C352.973 28.896 353.621 28.304 354.453 27.888C355.301 27.456 356.285 27.24 357.405 27.24C358.541 27.24 359.517 27.456 360.333 27.888C361.165 28.304 361.813 28.896 362.277 29.664C362.741 30.432 362.973 31.352 362.973 32.424H359.949C359.949 31.592 359.725 30.96 359.277 30.528C358.845 30.096 358.221 29.88 357.405 29.88C356.589 29.88 355.957 30.096 355.509 30.528C355.061 30.96 354.837 31.584 354.837 32.4V40.056C354.837 40.872 355.061 41.504 355.509 41.952C355.957 42.4 356.589 42.624 357.405 42.624C358.221 42.624 358.845 42.4 359.277 41.952C359.725 41.504 359.949 40.872 359.949 40.056V38.28H356.973V35.688H362.973V40.056C362.973 41.112 362.741 42.032 362.277 42.816C361.813 43.584 361.165 44.184 360.333 44.616C359.517 45.032 358.541 45.24 357.405 45.24Z" fill="#E6E5EA"/>
<rect x="380.5" y="22" width="10" height="28" fill="#A4FFAF"/>
<rect x="398.5" y="22" width="10" height="28" fill="#A4FFAF"/>
<rect x="416.5" y="22" width="10" height="28" fill="#A4FFAF"/>
<rect x="434.5" y="22" width="10" height="28" fill="#A4FFAF"/>
</svg>
