<svg width="476" height="72" viewBox="0 0 476 72" fill="none" xmlns="http://www.w3.org/2000/svg">
<rect width="476" height="72" fill="#18171F"/>
<path d="M37.5141 42.18C36.6141 42.18 35.8341 42.03 35.1741 41.73C34.5141 41.43 34.0041 41.004 33.6441 40.452C33.2961 39.888 33.1161 39.228 33.1041 38.472H35.3541C35.3541 39.012 35.5461 39.438 35.9301 39.75C36.3261 40.05 36.8601 40.2 37.5321 40.2C38.1801 40.2 38.6841 40.05 39.0441 39.75C39.4161 39.45 39.6021 39.036 39.6021 38.508C39.6021 38.064 39.4701 37.68 39.2061 37.356C38.9541 37.02 38.5881 36.792 38.1081 36.672L36.5961 36.258C35.5641 35.994 34.7661 35.52 34.2021 34.836C33.6501 34.152 33.3741 33.324 33.3741 32.352C33.3741 31.608 33.5421 30.96 33.8781 30.408C34.2141 29.856 34.6881 29.43 35.3001 29.13C35.9241 28.83 36.6561 28.68 37.4961 28.68C38.7681 28.68 39.7761 29.01 40.5201 29.67C41.2641 30.318 41.6421 31.194 41.6541 32.298H39.4041C39.4041 31.782 39.2361 31.38 38.9001 31.092C38.5641 30.792 38.0901 30.642 37.4781 30.642C36.8901 30.642 36.4341 30.78 36.1101 31.056C35.7861 31.332 35.6241 31.722 35.6241 32.226C35.6241 32.682 35.7441 33.072 35.9841 33.396C36.2361 33.708 36.5961 33.93 37.0641 34.062L38.6301 34.494C39.6741 34.758 40.4721 35.232 41.0241 35.916C41.5761 36.588 41.8521 37.422 41.8521 38.418C41.8521 39.162 41.6721 39.822 41.3121 40.398C40.9521 40.962 40.4481 41.4 39.8001 41.712C39.1521 42.024 38.3901 42.18 37.5141 42.18ZM47.1371 42V30.948H43.6991V28.86H52.8431V30.948H49.4051V42H47.1371ZM55.0321 42V28.86H59.1901C60.0661 28.86 60.8221 29.022 61.4581 29.346C62.1061 29.67 62.6101 30.126 62.9701 30.714C63.3301 31.29 63.5101 31.974 63.5101 32.766C63.5101 33.63 63.2881 34.392 62.8441 35.052C62.4121 35.712 61.8241 36.18 61.0801 36.456L63.6901 42H61.1701L58.8841 36.78H57.2821V42H55.0321ZM57.2821 34.8H59.1901C59.8261 34.8 60.3241 34.626 60.6841 34.278C61.0441 33.93 61.2241 33.45 61.2241 32.838C61.2241 32.214 61.0441 31.728 60.6841 31.38C60.3241 31.02 59.8261 30.84 59.1901 30.84H57.2821V34.8ZM66.041 42V28.86H73.925V30.822H68.255V34.242H73.295V36.186H68.255V40.038H73.925V42H66.041ZM76.546 42V28.86H79.3L82.954 39.48C82.918 39.096 82.876 38.646 82.828 38.13C82.792 37.602 82.762 37.068 82.738 36.528C82.714 35.976 82.702 35.496 82.702 35.088V28.86H84.754V42H82L78.382 31.38C78.406 31.728 78.436 32.148 78.472 32.64C78.508 33.132 78.538 33.636 78.562 34.152C78.586 34.668 78.598 35.142 78.598 35.574V42H76.546ZM91.515 42.18C90.675 42.18 89.937 42.024 89.301 41.712C88.677 41.388 88.191 40.938 87.843 40.362C87.507 39.774 87.339 39.084 87.339 38.292V32.568C87.339 31.764 87.507 31.074 87.843 30.498C88.191 29.922 88.677 29.478 89.301 29.166C89.937 28.842 90.675 28.68 91.515 28.68C92.367 28.68 93.099 28.842 93.711 29.166C94.335 29.478 94.821 29.922 95.169 30.498C95.517 31.074 95.691 31.764 95.691 32.568H93.423C93.423 31.944 93.255 31.47 92.919 31.146C92.595 30.822 92.127 30.66 91.515 30.66C90.903 30.66 90.429 30.822 90.093 31.146C89.757 31.47 89.589 31.938 89.589 32.55V38.292C89.589 38.904 89.757 39.378 90.093 39.714C90.429 40.05 90.903 40.218 91.515 40.218C92.127 40.218 92.595 40.05 92.919 39.714C93.255 39.378 93.423 38.904 93.423 38.292V36.96H91.191V35.016H95.691V38.292C95.691 39.084 95.517 39.774 95.169 40.362C94.821 40.938 94.335 41.388 93.711 41.712C93.099 42.024 92.367 42.18 91.515 42.18ZM101.102 42V30.948H97.6639V28.86H106.808V30.948H103.37V42H101.102ZM109.015 42V28.86H111.265V34.134H114.793V28.86H117.043V42H114.793V36.222H111.265V42H109.015Z" fill="#817D92"/>
<path d="M240.922 45V30.264H236.338V27.48H248.53V30.264H243.946V45H240.922ZM256.825 45.24C255.705 45.24 254.729 45.032 253.897 44.616C253.081 44.184 252.449 43.584 252.001 42.816C251.569 42.032 251.353 41.112 251.353 40.056V32.424C251.353 31.368 251.569 30.456 252.001 29.688C252.449 28.904 253.081 28.304 253.897 27.888C254.729 27.456 255.705 27.24 256.825 27.24C257.961 27.24 258.937 27.456 259.753 27.888C260.569 28.304 261.193 28.904 261.625 29.688C262.073 30.456 262.297 31.36 262.297 32.4V40.056C262.297 41.112 262.073 42.032 261.625 42.816C261.193 43.584 260.569 44.184 259.753 44.616C258.937 45.032 257.961 45.24 256.825 45.24ZM256.825 42.6C257.641 42.6 258.257 42.384 258.673 41.952C259.089 41.504 259.297 40.872 259.297 40.056V32.424C259.297 31.592 259.089 30.96 258.673 30.528C258.257 30.096 257.641 29.88 256.825 29.88C256.009 29.88 255.393 30.096 254.977 30.528C254.561 30.96 254.353 31.592 254.353 32.424V40.056C254.353 40.872 254.561 41.504 254.977 41.952C255.409 42.384 256.025 42.6 256.825 42.6ZM271.216 45.24C270.096 45.24 269.12 45.032 268.288 44.616C267.472 44.184 266.84 43.584 266.392 42.816C265.96 42.032 265.744 41.112 265.744 40.056V32.424C265.744 31.368 265.96 30.456 266.392 29.688C266.84 28.904 267.472 28.304 268.288 27.888C269.12 27.456 270.096 27.24 271.216 27.24C272.352 27.24 273.328 27.456 274.144 27.888C274.96 28.304 275.584 28.904 276.016 29.688C276.464 30.456 276.688 31.36 276.688 32.4V40.056C276.688 41.112 276.464 42.032 276.016 42.816C275.584 43.584 274.96 44.184 274.144 44.616C273.328 45.032 272.352 45.24 271.216 45.24ZM271.216 42.6C272.032 42.6 272.648 42.384 273.064 41.952C273.48 41.504 273.688 40.872 273.688 40.056V32.424C273.688 31.592 273.48 30.96 273.064 30.528C272.648 30.096 272.032 29.88 271.216 29.88C270.4 29.88 269.784 30.096 269.368 30.528C268.952 30.96 268.744 31.592 268.744 32.424V40.056C268.744 40.872 268.952 41.504 269.368 41.952C269.8 42.384 270.416 42.6 271.216 42.6ZM294.981 45L293.181 27.48H295.773L296.829 39.72C296.861 39.992 296.885 40.328 296.901 40.728C296.933 41.112 296.957 41.504 296.973 41.904C297.005 42.304 297.021 42.656 297.021 42.96C297.053 42.656 297.085 42.304 297.117 41.904C297.149 41.504 297.181 41.112 297.213 40.728C297.261 40.328 297.301 39.992 297.333 39.72L298.773 27.48H301.293L302.637 39.72C302.685 39.992 302.725 40.328 302.757 40.728C302.805 41.112 302.853 41.504 302.901 41.904C302.949 42.304 302.989 42.656 303.021 42.96C303.037 42.656 303.053 42.304 303.069 41.904C303.085 41.504 303.101 41.112 303.117 40.728C303.149 40.328 303.181 39.992 303.213 39.72L304.245 27.48H306.813L304.917 45H301.605L300.309 32.712C300.277 32.408 300.237 32.056 300.189 31.656C300.157 31.24 300.125 30.832 300.093 30.432C300.061 30.016 300.037 29.664 300.021 29.376C300.005 29.664 299.973 30.016 299.925 30.432C299.893 30.832 299.861 31.24 299.829 31.656C299.797 32.056 299.765 32.408 299.733 32.712L298.317 45H294.981ZM309.3 45V27.48H319.812V30.096H312.252V34.656H318.972V37.248H312.252V42.384H319.812V45H309.3ZM322.418 45L326.834 27.48H330.698L335.138 45H332.066L331.106 40.752H326.45L325.49 45H322.418ZM327.002 38.304H330.554L329.498 33.6C329.322 32.816 329.17 32.112 329.042 31.488C328.914 30.848 328.826 30.384 328.778 30.096C328.73 30.384 328.642 30.848 328.514 31.488C328.402 32.112 328.25 32.808 328.058 33.576L327.002 38.304ZM337.793 45V27.48H340.793V34.56H342.881L346.169 27.48H349.433L345.521 35.88L349.625 45H346.289L342.833 37.296H340.793V45H337.793ZM356.455 39.408L355.927 30.792V27.48H359.191V30.792L358.663 39.408H356.455ZM357.199 45.12C356.703 45.12 356.303 44.976 355.999 44.688C355.695 44.384 355.543 44 355.543 43.536C355.543 43.072 355.695 42.696 355.999 42.408C356.303 42.104 356.703 41.952 357.199 41.952H357.919C358.431 41.952 358.831 42.096 359.119 42.384C359.423 42.672 359.575 43.056 359.575 43.536C359.575 44 359.423 44.384 359.119 44.688C358.815 44.976 358.407 45.12 357.895 45.12H357.199Z" fill="#E6E5EA"/>
<rect x="380.75" y="22" width="10" height="28" fill="#F64A4A"/>
<rect x="399.75" y="23" width="8" height="26" stroke="#E6E5EA" stroke-width="2"/>
<rect x="417.75" y="23" width="8" height="26" stroke="#E6E5EA" stroke-width="2"/>
<rect x="435.75" y="23" width="8" height="26" stroke="#E6E5EA" stroke-width="2"/>
</svg>
