<svg width="476" height="72" viewBox="0 0 476 72" fill="none" xmlns="http://www.w3.org/2000/svg">
<rect width="476" height="72" fill="#18171F"/>
<path d="M37.5141 42.18C36.6141 42.18 35.8341 42.03 35.1741 41.73C34.5141 41.43 34.0041 41.004 33.6441 40.452C33.2961 39.888 33.1161 39.228 33.1041 38.472H35.3541C35.3541 39.012 35.5461 39.438 35.9301 39.75C36.3261 40.05 36.8601 40.2 37.5321 40.2C38.1801 40.2 38.6841 40.05 39.0441 39.75C39.4161 39.45 39.6021 39.036 39.6021 38.508C39.6021 38.064 39.4701 37.68 39.2061 37.356C38.9541 37.02 38.5881 36.792 38.1081 36.672L36.5961 36.258C35.5641 35.994 34.7661 35.52 34.2021 34.836C33.6501 34.152 33.3741 33.324 33.3741 32.352C33.3741 31.608 33.5421 30.96 33.8781 30.408C34.2141 29.856 34.6881 29.43 35.3001 29.13C35.9241 28.83 36.6561 28.68 37.4961 28.68C38.7681 28.68 39.7761 29.01 40.5201 29.67C41.2641 30.318 41.6421 31.194 41.6541 32.298H39.4041C39.4041 31.782 39.2361 31.38 38.9001 31.092C38.5641 30.792 38.0901 30.642 37.4781 30.642C36.8901 30.642 36.4341 30.78 36.1101 31.056C35.7861 31.332 35.6241 31.722 35.6241 32.226C35.6241 32.682 35.7441 33.072 35.9841 33.396C36.2361 33.708 36.5961 33.93 37.0641 34.062L38.6301 34.494C39.6741 34.758 40.4721 35.232 41.0241 35.916C41.5761 36.588 41.8521 37.422 41.8521 38.418C41.8521 39.162 41.6721 39.822 41.3121 40.398C40.9521 40.962 40.4481 41.4 39.8001 41.712C39.1521 42.024 38.3901 42.18 37.5141 42.18ZM47.1371 42V30.948H43.6991V28.86H52.8431V30.948H49.4051V42H47.1371ZM55.0321 42V28.86H59.1901C60.0661 28.86 60.8221 29.022 61.4581 29.346C62.1061 29.67 62.6101 30.126 62.9701 30.714C63.3301 31.29 63.5101 31.974 63.5101 32.766C63.5101 33.63 63.2881 34.392 62.8441 35.052C62.4121 35.712 61.8241 36.18 61.0801 36.456L63.6901 42H61.1701L58.8841 36.78H57.2821V42H55.0321ZM57.2821 34.8H59.1901C59.8261 34.8 60.3241 34.626 60.6841 34.278C61.0441 33.93 61.2241 33.45 61.2241 32.838C61.2241 32.214 61.0441 31.728 60.6841 31.38C60.3241 31.02 59.8261 30.84 59.1901 30.84H57.2821V34.8ZM66.041 42V28.86H73.925V30.822H68.255V34.242H73.295V36.186H68.255V40.038H73.925V42H66.041ZM76.546 42V28.86H79.3L82.954 39.48C82.918 39.096 82.876 38.646 82.828 38.13C82.792 37.602 82.762 37.068 82.738 36.528C82.714 35.976 82.702 35.496 82.702 35.088V28.86H84.754V42H82L78.382 31.38C78.406 31.728 78.436 32.148 78.472 32.64C78.508 33.132 78.538 33.636 78.562 34.152C78.586 34.668 78.598 35.142 78.598 35.574V42H76.546ZM91.515 42.18C90.675 42.18 89.937 42.024 89.301 41.712C88.677 41.388 88.191 40.938 87.843 40.362C87.507 39.774 87.339 39.084 87.339 38.292V32.568C87.339 31.764 87.507 31.074 87.843 30.498C88.191 29.922 88.677 29.478 89.301 29.166C89.937 28.842 90.675 28.68 91.515 28.68C92.367 28.68 93.099 28.842 93.711 29.166C94.335 29.478 94.821 29.922 95.169 30.498C95.517 31.074 95.691 31.764 95.691 32.568H93.423C93.423 31.944 93.255 31.47 92.919 31.146C92.595 30.822 92.127 30.66 91.515 30.66C90.903 30.66 90.429 30.822 90.093 31.146C89.757 31.47 89.589 31.938 89.589 32.55V38.292C89.589 38.904 89.757 39.378 90.093 39.714C90.429 40.05 90.903 40.218 91.515 40.218C92.127 40.218 92.595 40.05 92.919 39.714C93.255 39.378 93.423 38.904 93.423 38.292V36.96H91.191V35.016H95.691V38.292C95.691 39.084 95.517 39.774 95.169 40.362C94.821 40.938 94.335 41.388 93.711 41.712C93.099 42.024 92.367 42.18 91.515 42.18ZM101.102 42V30.948H97.6639V28.86H106.808V30.948H103.37V42H101.102ZM109.015 42V28.86H111.265V34.134H114.793V28.86H117.043V42H114.793V36.222H111.265V42H109.015Z" fill="#817D92"/>
<path d="M309.372 45L307.572 27.48H310.164L311.22 39.72C311.252 39.992 311.276 40.328 311.292 40.728C311.324 41.112 311.348 41.504 311.364 41.904C311.396 42.304 311.412 42.656 311.412 42.96C311.444 42.656 311.476 42.304 311.508 41.904C311.54 41.504 311.572 41.112 311.604 40.728C311.652 40.328 311.692 39.992 311.724 39.72L313.164 27.48H315.684L317.028 39.72C317.076 39.992 317.116 40.328 317.148 40.728C317.196 41.112 317.244 41.504 317.292 41.904C317.34 42.304 317.38 42.656 317.412 42.96C317.428 42.656 317.444 42.304 317.46 41.904C317.476 41.504 317.492 41.112 317.508 40.728C317.54 40.328 317.572 39.992 317.604 39.72L318.636 27.48H321.204L319.307 45H315.996L314.7 32.712C314.668 32.408 314.628 32.056 314.58 31.656C314.548 31.24 314.516 30.832 314.484 30.432C314.452 30.016 314.428 29.664 314.412 29.376C314.396 29.664 314.364 30.016 314.316 30.432C314.284 30.832 314.252 31.24 314.22 31.656C314.188 32.056 314.156 32.408 314.124 32.712L312.708 45H309.372ZM323.69 45V27.48H334.202V30.096H326.642V34.656H333.362V37.248H326.642V42.384H334.202V45H323.69ZM336.809 45L341.225 27.48H345.089L349.529 45H346.457L345.497 40.752H340.841L339.881 45H336.809ZM341.393 38.304H344.945L343.889 33.6C343.713 32.816 343.561 32.112 343.433 31.488C343.305 30.848 343.217 30.384 343.169 30.096C343.121 30.384 343.033 30.848 342.905 31.488C342.793 32.112 342.641 32.808 342.449 33.576L341.393 38.304ZM352.183 45V27.48H355.183V34.56H357.271L360.559 27.48H363.823L359.911 35.88L364.015 45H360.679L357.223 37.296H355.183V45H352.183Z" fill="#E6E5EA"/>
<rect x="380.75" y="22" width="10" height="28" fill="#FB7C58"/>
<rect x="398.75" y="22" width="10" height="28" fill="#FB7C58"/>
<rect x="417.75" y="23" width="8" height="26" stroke="#E6E5EA" stroke-width="2"/>
<rect x="435.75" y="23" width="8" height="26" stroke="#E6E5EA" stroke-width="2"/>
</svg>
